<mxfile host="app.diagrams.net" modified="2024-07-15T00:49:45.178Z" agent="Mozilla/5.0 (Windows NT 10.0; Win64; x64) AppleWebKit/537.36 (KHTML, like Gecko) Chrome/126.0.0.0 Safari/537.36 Edg/126.0.0.0" etag="YYcNT1Hk5y2XMC77CfNw" version="24.6.5" type="device">
  <diagram name="Page-1" id="e5iBpyE3qVsb6jmThmoV">
    <mxGraphModel dx="786" dy="1674" grid="1" gridSize="10" guides="1" tooltips="1" connect="1" arrows="1" fold="1" page="1" pageScale="1" pageWidth="827" pageHeight="1169" math="0" shadow="0">
      <root>
        <mxCell id="0" />
        <mxCell id="1" parent="0" />
        <mxCell id="EQfn_xjMeJB50VOaj9TZ-2" value="AWS Account" style="points=[[0,0],[0.25,0],[0.5,0],[0.75,0],[1,0],[1,0.25],[1,0.5],[1,0.75],[1,1],[0.75,1],[0.5,1],[0.25,1],[0,1],[0,0.75],[0,0.5],[0,0.25]];outlineConnect=0;gradientColor=none;html=1;whiteSpace=wrap;fontSize=12;fontStyle=0;container=1;pointerEvents=0;collapsible=0;recursiveResize=0;shape=mxgraph.aws4.group;grIcon=mxgraph.aws4.group_account;strokeColor=#CD2264;fillColor=none;verticalAlign=top;align=left;spacingLeft=30;fontColor=#CD2264;dashed=0;" parent="1" vertex="1">
          <mxGeometry x="90" y="70" width="790" height="490" as="geometry" />
        </mxCell>
        <mxCell id="EQfn_xjMeJB50VOaj9TZ-5" value="Region" style="points=[[0,0],[0.25,0],[0.5,0],[0.75,0],[1,0],[1,0.25],[1,0.5],[1,0.75],[1,1],[0.75,1],[0.5,1],[0.25,1],[0,1],[0,0.75],[0,0.5],[0,0.25]];outlineConnect=0;gradientColor=none;html=1;whiteSpace=wrap;fontSize=12;fontStyle=0;container=1;pointerEvents=0;collapsible=0;recursiveResize=0;shape=mxgraph.aws4.group;grIcon=mxgraph.aws4.group_region;strokeColor=#00A4A6;fillColor=none;verticalAlign=top;align=left;spacingLeft=30;fontColor=#147EBA;dashed=1;" parent="1" vertex="1">
          <mxGeometry x="120" y="90" width="738" height="450" as="geometry" />
        </mxCell>
        <mxCell id="EQfn_xjMeJB50VOaj9TZ-7" value="VPC" style="points=[[0,0],[0.25,0],[0.5,0],[0.75,0],[1,0],[1,0.25],[1,0.5],[1,0.75],[1,1],[0.75,1],[0.5,1],[0.25,1],[0,1],[0,0.75],[0,0.5],[0,0.25]];outlineConnect=0;gradientColor=none;html=1;whiteSpace=wrap;fontSize=12;fontStyle=0;container=1;pointerEvents=0;collapsible=0;recursiveResize=0;shape=mxgraph.aws4.group;grIcon=mxgraph.aws4.group_vpc2;strokeColor=#8C4FFF;fillColor=none;verticalAlign=top;align=left;spacingLeft=30;fontColor=#AAB7B8;dashed=0;sketch=1;curveFitting=1;jiggle=2;" parent="EQfn_xjMeJB50VOaj9TZ-5" vertex="1">
          <mxGeometry x="10" y="140" width="660" height="300" as="geometry" />
        </mxCell>
        <mxCell id="EQfn_xjMeJB50VOaj9TZ-22" value="Availability Zone" style="fillColor=none;strokeColor=#147EBA;dashed=1;verticalAlign=top;fontStyle=0;fontColor=#147EBA;whiteSpace=wrap;html=1;" parent="EQfn_xjMeJB50VOaj9TZ-7" vertex="1">
          <mxGeometry x="342" y="40" width="300" height="250" as="geometry" />
        </mxCell>
        <mxCell id="EQfn_xjMeJB50VOaj9TZ-26" value="Availability Zone" style="fillColor=none;strokeColor=#147EBA;dashed=1;verticalAlign=top;fontStyle=0;fontColor=#147EBA;whiteSpace=wrap;html=1;" parent="EQfn_xjMeJB50VOaj9TZ-7" vertex="1">
          <mxGeometry x="12" y="60" width="300" height="220" as="geometry" />
        </mxCell>
        <mxCell id="EQfn_xjMeJB50VOaj9TZ-32" value="Public subnet" style="points=[[0,0],[0.25,0],[0.5,0],[0.75,0],[1,0],[1,0.25],[1,0.5],[1,0.75],[1,1],[0.75,1],[0.5,1],[0.25,1],[0,1],[0,0.75],[0,0.5],[0,0.25]];outlineConnect=0;gradientColor=none;html=1;whiteSpace=wrap;fontSize=12;fontStyle=0;container=1;pointerEvents=0;collapsible=0;recursiveResize=0;shape=mxgraph.aws4.group;grIcon=mxgraph.aws4.group_security_group;grStroke=0;strokeColor=#7AA116;fillColor=#F2F6E8;verticalAlign=top;align=left;spacingLeft=30;fontColor=#248814;dashed=0;" parent="EQfn_xjMeJB50VOaj9TZ-7" vertex="1">
          <mxGeometry x="20" y="95" width="130" height="130" as="geometry" />
        </mxCell>
        <mxCell id="EQfn_xjMeJB50VOaj9TZ-37" value="" style="sketch=0;outlineConnect=0;fontColor=#232F3E;gradientColor=none;fillColor=#8C4FFF;strokeColor=none;dashed=0;verticalLabelPosition=bottom;verticalAlign=top;align=center;html=1;fontSize=12;fontStyle=0;aspect=fixed;pointerEvents=1;shape=mxgraph.aws4.nat_gateway;" parent="EQfn_xjMeJB50VOaj9TZ-32" vertex="1">
          <mxGeometry x="20" y="31" width="49" height="49" as="geometry" />
        </mxCell>
        <mxCell id="EQfn_xjMeJB50VOaj9TZ-33" value="Public subnet" style="points=[[0,0],[0.25,0],[0.5,0],[0.75,0],[1,0],[1,0.25],[1,0.5],[1,0.75],[1,1],[0.75,1],[0.5,1],[0.25,1],[0,1],[0,0.75],[0,0.5],[0,0.25]];outlineConnect=0;gradientColor=none;html=1;whiteSpace=wrap;fontSize=12;fontStyle=0;container=1;pointerEvents=0;collapsible=0;recursiveResize=0;shape=mxgraph.aws4.group;grIcon=mxgraph.aws4.group_security_group;grStroke=0;strokeColor=#7AA116;fillColor=#F2F6E8;verticalAlign=top;align=left;spacingLeft=30;fontColor=#248814;dashed=0;" parent="EQfn_xjMeJB50VOaj9TZ-7" vertex="1">
          <mxGeometry x="503" y="90" width="130" height="130" as="geometry" />
        </mxCell>
        <mxCell id="EQfn_xjMeJB50VOaj9TZ-38" value="" style="sketch=0;outlineConnect=0;fontColor=#232F3E;gradientColor=none;fillColor=#8C4FFF;strokeColor=none;dashed=0;verticalLabelPosition=bottom;verticalAlign=top;align=center;html=1;fontSize=12;fontStyle=0;aspect=fixed;pointerEvents=1;shape=mxgraph.aws4.nat_gateway;" parent="EQfn_xjMeJB50VOaj9TZ-33" vertex="1">
          <mxGeometry x="27" y="38" width="54" height="54" as="geometry" />
        </mxCell>
        <mxCell id="EQfn_xjMeJB50VOaj9TZ-34" value="Private subnet" style="points=[[0,0],[0.25,0],[0.5,0],[0.75,0],[1,0],[1,0.25],[1,0.5],[1,0.75],[1,1],[0.75,1],[0.5,1],[0.25,1],[0,1],[0,0.75],[0,0.5],[0,0.25]];outlineConnect=0;gradientColor=none;html=1;whiteSpace=wrap;fontSize=12;fontStyle=0;container=1;pointerEvents=0;collapsible=0;recursiveResize=0;shape=mxgraph.aws4.group;grIcon=mxgraph.aws4.group_security_group;grStroke=0;strokeColor=#00A4A6;fillColor=#E6F6F7;verticalAlign=top;align=left;spacingLeft=30;fontColor=#147EBA;dashed=0;" parent="EQfn_xjMeJB50VOaj9TZ-7" vertex="1">
          <mxGeometry x="170" y="100" width="130" height="130" as="geometry" />
        </mxCell>
        <mxCell id="YSHGjx2WMdUgYgXwPlbx-1" value="" style="sketch=0;outlineConnect=0;fontColor=#232F3E;gradientColor=none;fillColor=#ED7100;strokeColor=none;dashed=0;verticalLabelPosition=bottom;verticalAlign=top;align=center;html=1;fontSize=12;fontStyle=0;aspect=fixed;pointerEvents=1;shape=mxgraph.aws4.auto_scaling2;" vertex="1" parent="EQfn_xjMeJB50VOaj9TZ-34">
          <mxGeometry x="41" y="26" width="34" height="34" as="geometry" />
        </mxCell>
        <mxCell id="YSHGjx2WMdUgYgXwPlbx-2" value="" style="sketch=0;outlineConnect=0;fontColor=#232F3E;gradientColor=none;fillColor=#ED7100;strokeColor=none;dashed=0;verticalLabelPosition=bottom;verticalAlign=top;align=center;html=1;fontSize=12;fontStyle=0;aspect=fixed;pointerEvents=1;shape=mxgraph.aws4.auto_scaling2;" vertex="1" parent="EQfn_xjMeJB50VOaj9TZ-34">
          <mxGeometry x="41" y="75" width="34" height="34" as="geometry" />
        </mxCell>
        <mxCell id="EQfn_xjMeJB50VOaj9TZ-36" value="Private subnet" style="points=[[0,0],[0.25,0],[0.5,0],[0.75,0],[1,0],[1,0.25],[1,0.5],[1,0.75],[1,1],[0.75,1],[0.5,1],[0.25,1],[0,1],[0,0.75],[0,0.5],[0,0.25]];outlineConnect=0;gradientColor=none;html=1;whiteSpace=wrap;fontSize=12;fontStyle=0;container=1;pointerEvents=0;collapsible=0;recursiveResize=0;shape=mxgraph.aws4.group;grIcon=mxgraph.aws4.group_security_group;grStroke=0;strokeColor=#00A4A6;fillColor=#E6F6F7;verticalAlign=top;align=left;spacingLeft=30;fontColor=#147EBA;dashed=0;" parent="EQfn_xjMeJB50VOaj9TZ-7" vertex="1">
          <mxGeometry x="350" y="100" width="150" height="155" as="geometry" />
        </mxCell>
        <mxCell id="YSHGjx2WMdUgYgXwPlbx-3" value="" style="sketch=0;outlineConnect=0;fontColor=#232F3E;gradientColor=none;fillColor=#ED7100;strokeColor=none;dashed=0;verticalLabelPosition=bottom;verticalAlign=top;align=center;html=1;fontSize=12;fontStyle=0;aspect=fixed;pointerEvents=1;shape=mxgraph.aws4.auto_scaling2;" vertex="1" parent="EQfn_xjMeJB50VOaj9TZ-36">
          <mxGeometry x="48" y="28.5" width="34" height="34" as="geometry" />
        </mxCell>
        <mxCell id="YSHGjx2WMdUgYgXwPlbx-4" value="" style="sketch=0;outlineConnect=0;fontColor=#232F3E;gradientColor=none;fillColor=#ED7100;strokeColor=none;dashed=0;verticalLabelPosition=bottom;verticalAlign=top;align=center;html=1;fontSize=12;fontStyle=0;aspect=fixed;pointerEvents=1;shape=mxgraph.aws4.auto_scaling2;" vertex="1" parent="EQfn_xjMeJB50VOaj9TZ-36">
          <mxGeometry x="48" y="77.5" width="34" height="34" as="geometry" />
        </mxCell>
        <mxCell id="EQfn_xjMeJB50VOaj9TZ-67" value="Security group" style="fillColor=none;strokeColor=#DD3522;verticalAlign=top;fontStyle=0;fontColor=#DD3522;whiteSpace=wrap;html=1;" parent="EQfn_xjMeJB50VOaj9TZ-36" vertex="1">
          <mxGeometry x="-190" y="-5" width="340" height="160" as="geometry" />
        </mxCell>
        <mxCell id="EQfn_xjMeJB50VOaj9TZ-30" value="" style="sketch=0;outlineConnect=0;fontColor=#232F3E;gradientColor=none;fillColor=#8C4FFF;strokeColor=none;dashed=0;verticalLabelPosition=bottom;verticalAlign=top;align=center;html=1;fontSize=12;fontStyle=0;aspect=fixed;pointerEvents=1;shape=mxgraph.aws4.internet_gateway;" parent="EQfn_xjMeJB50VOaj9TZ-5" vertex="1">
          <mxGeometry x="314" y="7" width="41" height="41" as="geometry" />
        </mxCell>
        <mxCell id="EQfn_xjMeJB50VOaj9TZ-45" value="" style="sketch=0;outlineConnect=0;fontColor=#232F3E;gradientColor=none;fillColor=#7AA116;strokeColor=none;dashed=0;verticalLabelPosition=bottom;verticalAlign=top;align=center;html=1;fontSize=12;fontStyle=0;aspect=fixed;pointerEvents=1;shape=mxgraph.aws4.bucket;" parent="EQfn_xjMeJB50VOaj9TZ-5" vertex="1">
          <mxGeometry x="124" y="33.5" width="33.18" height="34.5" as="geometry" />
        </mxCell>
        <mxCell id="EQfn_xjMeJB50VOaj9TZ-60" style="edgeStyle=orthogonalEdgeStyle;rounded=0;orthogonalLoop=1;jettySize=auto;html=1;exitX=0.5;exitY=0;exitDx=0;exitDy=0;exitPerimeter=0;" parent="EQfn_xjMeJB50VOaj9TZ-5" target="EQfn_xjMeJB50VOaj9TZ-30" edge="1">
          <mxGeometry relative="1" as="geometry">
            <mxPoint x="335" y="76" as="sourcePoint" />
            <Array as="points">
              <mxPoint x="335" y="50" />
            </Array>
          </mxGeometry>
        </mxCell>
        <mxCell id="EQfn_xjMeJB50VOaj9TZ-58" style="edgeStyle=orthogonalEdgeStyle;rounded=0;orthogonalLoop=1;jettySize=auto;html=1;" parent="EQfn_xjMeJB50VOaj9TZ-5" source="EQfn_xjMeJB50VOaj9TZ-26" target="EQfn_xjMeJB50VOaj9TZ-71" edge="1">
          <mxGeometry relative="1" as="geometry">
            <mxPoint x="310" y="88.5" as="targetPoint" />
            <Array as="points">
              <mxPoint x="172" y="90" />
            </Array>
          </mxGeometry>
        </mxCell>
        <mxCell id="EQfn_xjMeJB50VOaj9TZ-71" value="" style="sketch=0;outlineConnect=0;fontColor=#232F3E;gradientColor=none;fillColor=#8C4FFF;strokeColor=none;dashed=0;verticalLabelPosition=bottom;verticalAlign=top;align=center;html=1;fontSize=12;fontStyle=0;aspect=fixed;pointerEvents=1;shape=mxgraph.aws4.application_load_balancer;" parent="EQfn_xjMeJB50VOaj9TZ-5" vertex="1">
          <mxGeometry x="300" y="68" width="52" height="52" as="geometry" />
        </mxCell>
        <mxCell id="EQfn_xjMeJB50VOaj9TZ-73" value="Security group" style="fillColor=none;strokeColor=#DD3522;verticalAlign=top;fontStyle=0;fontColor=#DD3522;whiteSpace=wrap;html=1;" parent="EQfn_xjMeJB50VOaj9TZ-5" vertex="1">
          <mxGeometry x="281" y="64" width="90" height="60" as="geometry" />
        </mxCell>
        <mxCell id="EQfn_xjMeJB50VOaj9TZ-74" value="" style="edgeStyle=orthogonalEdgeStyle;rounded=0;orthogonalLoop=1;jettySize=auto;html=1;entryX=1;entryY=0.5;entryDx=0;entryDy=0;entryPerimeter=0;" parent="EQfn_xjMeJB50VOaj9TZ-5" source="EQfn_xjMeJB50VOaj9TZ-22" target="EQfn_xjMeJB50VOaj9TZ-73" edge="1">
          <mxGeometry relative="1" as="geometry">
            <mxPoint x="622" y="270" as="sourcePoint" />
            <mxPoint x="472" y="184" as="targetPoint" />
          </mxGeometry>
        </mxCell>
        <mxCell id="EQfn_xjMeJB50VOaj9TZ-76" value="" style="edgeStyle=orthogonalEdgeStyle;rounded=0;orthogonalLoop=1;jettySize=auto;html=1;" parent="EQfn_xjMeJB50VOaj9TZ-5" source="EQfn_xjMeJB50VOaj9TZ-75" target="EQfn_xjMeJB50VOaj9TZ-26" edge="1">
          <mxGeometry relative="1" as="geometry">
            <Array as="points">
              <mxPoint x="70" y="140" />
              <mxPoint x="172" y="140" />
            </Array>
          </mxGeometry>
        </mxCell>
        <mxCell id="EQfn_xjMeJB50VOaj9TZ-78" style="edgeStyle=orthogonalEdgeStyle;rounded=0;orthogonalLoop=1;jettySize=auto;html=1;" parent="EQfn_xjMeJB50VOaj9TZ-5" source="EQfn_xjMeJB50VOaj9TZ-75" target="EQfn_xjMeJB50VOaj9TZ-45" edge="1">
          <mxGeometry relative="1" as="geometry" />
        </mxCell>
        <mxCell id="EQfn_xjMeJB50VOaj9TZ-75" value="" style="sketch=0;outlineConnect=0;fontColor=#232F3E;gradientColor=none;fillColor=#DD344C;strokeColor=none;dashed=0;verticalLabelPosition=bottom;verticalAlign=top;align=center;html=1;fontSize=12;fontStyle=0;aspect=fixed;pointerEvents=1;shape=mxgraph.aws4.role;" parent="EQfn_xjMeJB50VOaj9TZ-5" vertex="1">
          <mxGeometry x="50" y="68" width="39" height="22" as="geometry" />
        </mxCell>
        <mxCell id="EQfn_xjMeJB50VOaj9TZ-31" value="" style="sketch=0;outlineConnect=0;fontColor=#232F3E;gradientColor=none;fillColor=#232F3D;strokeColor=none;dashed=0;verticalLabelPosition=bottom;verticalAlign=top;align=center;html=1;fontSize=12;fontStyle=0;aspect=fixed;pointerEvents=1;shape=mxgraph.aws4.internet_alt2;" parent="1" vertex="1">
          <mxGeometry x="430" y="-10" width="50" height="50" as="geometry" />
        </mxCell>
        <mxCell id="EQfn_xjMeJB50VOaj9TZ-64" style="edgeStyle=orthogonalEdgeStyle;rounded=0;orthogonalLoop=1;jettySize=auto;html=1;" parent="1" source="EQfn_xjMeJB50VOaj9TZ-30" target="EQfn_xjMeJB50VOaj9TZ-31" edge="1">
          <mxGeometry relative="1" as="geometry" />
        </mxCell>
      </root>
    </mxGraphModel>
  </diagram>
</mxfile>
